{
    "asset" : {
        "generator" : "Khronos glTF Blender I/O v1.8.19",
        "version" : "2.0"
    },
    "scene" : 0,
    "scenes" : [
        {
            "name" : "Scene",
            "nodes" : [
                23
            ]
        }
    ],
    "nodes" : [
        {
            "name" : "Shin.L",
            "rotation" : [
                -0.466829776763916,
                -0.08984203636646271,
                0.010559295304119587,
                0.8797084093093872
            ],
            "scale" : [
                1,
                0.9999996423721313,
                1.0000001192092896
            ],
            "translation" : [
                1.9960124220119724e-08,
                0.6243305802345276,
                -1.6406069391905476e-08
            ]
        },
        {
            "children" : [
                0
            ],
            "name" : "Thigh.L",
            "rotation" : [
                -0.9360569715499878,
                -0.11318092048168182,
                -0.11318056285381317,
                0.313333123922348
            ],
            "scale" : [
                0.9999995231628418,
                0.9999998807907104,
                0.9999988675117493
            ],
            "translation" : [
                0.4992593228816986,
                0.06559514254331589,
                -0.07307429611682892
            ]
        },
        {
            "name" : "Ear.L",
            "rotation" : [
                -0.3707726001739502,
                -0.33829495310783386,
                -0.3382949233055115,
                0.7960155606269836
            ],
            "scale" : [
                1,
                1,
                0.9999998807907104
            ],
            "translation" : [
                0,
                0.6697777509689331,
                -7.105435827930474e-15
            ]
        },
        {
            "name" : "Ear.R",
            "rotation" : [
                -0.3707726001739502,
                0.33829495310783386,
                0.3382949233055115,
                0.7960155606269836
            ],
            "scale" : [
                1,
                1,
                0.9999998807907104
            ],
            "translation" : [
                0,
                0.6697777509689331,
                -7.105435827930474e-15
            ]
        },
        {
            "children" : [
                2,
                3
            ],
            "name" : "Head",
            "rotation" : [
                3.5527132552840273e-15,
                -4.336808689942018e-18,
                1.8702489543326483e-18,
                1
            ],
            "translation" : [
                -4.251692632090924e-18,
                0.5764150023460388,
                -2.034522656141173e-14
            ]
        },
        {
            "name" : "Hand.L",
            "rotation" : [
                -0.0015236885519698262,
                -5.631188832921907e-05,
                -0.036954306066036224,
                0.9993157982826233
            ],
            "scale" : [
                0.9999999403953552,
                1.0000001192092896,
                1
            ],
            "translation" : [
                -1.2038023911031814e-08,
                0.43734580278396606,
                -1.251107306643462e-08
            ]
        },
        {
            "children" : [
                5
            ],
            "name" : "Forearm.L",
            "rotation" : [
                0.14128203690052032,
                -4.603936343272608e-09,
                -1.5511423256953094e-08,
                0.9899694919586182
            ],
            "scale" : [
                1,
                1.0000001192092896,
                1
            ],
            "translation" : [
                2.067473481304205e-08,
                0.5732499361038208,
                2.198729731617277e-08
            ]
        },
        {
            "children" : [
                6
            ],
            "name" : "UpperArm.L",
            "rotation" : [
                -0.06835153698921204,
                0.06835145503282547,
                -0.7037954926490784,
                0.7037954926490784
            ],
            "scale" : [
                1,
                0.9999999403953552,
                1
            ],
            "translation" : [
                0.48667117953300476,
                0.47799938917160034,
                0.044772058725357056
            ]
        },
        {
            "name" : "Hand.R",
            "rotation" : [
                -0.0015236885519698262,
                5.631188832921907e-05,
                0.036954306066036224,
                0.9993157982826233
            ],
            "scale" : [
                0.9999999403953552,
                1.0000001192092896,
                1
            ],
            "translation" : [
                1.2038023911031814e-08,
                0.43734580278396606,
                -1.251107306643462e-08
            ]
        },
        {
            "children" : [
                8
            ],
            "name" : "Forearm.R",
            "rotation" : [
                0.14128203690052032,
                4.603936343272608e-09,
                1.5511423256953094e-08,
                0.9899694919586182
            ],
            "scale" : [
                1,
                1.0000001192092896,
                1
            ],
            "translation" : [
                -2.067473481304205e-08,
                0.5732499361038208,
                2.198729731617277e-08
            ]
        },
        {
            "children" : [
                9
            ],
            "name" : "UpperArm.R",
            "rotation" : [
                -0.06835153698921204,
                -0.06835145503282547,
                0.7037954926490784,
                0.7037954926490784
            ],
            "scale" : [
                1,
                0.9999999403953552,
                1
            ],
            "translation" : [
                -0.48667117953300476,
                0.47799938917160034,
                0.044772058725357056
            ]
        },
        {
            "children" : [
                4,
                7,
                10
            ],
            "name" : "Chest",
            "rotation" : [
                4.2840831326884654e-08,
                -2.182787631199723e-11,
                -1.7462298274040222e-10,
                1
            ],
            "translation" : [
                -1.0481128613862446e-17,
                0.5602504014968872,
                -1.0658168988488762e-14
            ]
        },
        {
            "name" : "LowerTail",
            "rotation" : [
                -0.03252943232655525,
                -9.87507142724553e-09,
                0.0013369673397392035,
                0.9994699358940125
            ],
            "scale" : [
                1.0000001192092896,
                1,
                1
            ],
            "translation" : [
                -4.39586145262183e-09,
                0.5708808302879333,
                4.453998059261721e-08
            ]
        },
        {
            "children" : [
                12
            ],
            "name" : "UpperTail",
            "rotation" : [
                -0.9702544808387756,
                -0.004954877775162458,
                0.019930319860577583,
                0.24121496081352234
            ],
            "scale" : [
                1,
                0.9999999403953552,
                0.9999990463256836
            ],
            "translation" : [
                -1.4796328051680518e-10,
                0.0704185962677002,
                -0.5293405055999756
            ]
        },
        {
            "name" : "Shin.R",
            "rotation" : [
                -0.466829776763916,
                0.08984203636646271,
                -0.010559295304119587,
                0.8797084093093872
            ],
            "scale" : [
                1,
                0.9999996423721313,
                1.0000001192092896
            ],
            "translation" : [
                -1.9960124220119724e-08,
                0.6243305802345276,
                -1.6406069391905476e-08
            ]
        },
        {
            "children" : [
                14
            ],
            "name" : "Thigh.R",
            "rotation" : [
                -0.9360569715499878,
                0.11318092048168182,
                0.11318056285381317,
                0.313333123922348
            ],
            "scale" : [
                0.9999995231628418,
                0.9999998807907104,
                0.9999988675117493
            ],
            "translation" : [
                -0.4992593228816986,
                0.06559514254331589,
                -0.07307429611682892
            ]
        },
        {
            "children" : [
                1,
                11,
                13,
                15
            ],
            "name" : "Torso",
            "rotation" : [
                0.6953625679016113,
                -0.0006839102134108543,
                0.0006617406033910811,
                0.7186585664749146
            ],
            "scale" : [
                0.9999999403953552,
                1.0000001192092896,
                1
            ],
            "translation" : [
                -0.0021166580263525248,
                0.1842528134584427,
                1.112068772315979
            ]
        },
        {
            "children" : [
                16
            ],
            "name" : "Root",
            "rotation" : [
                -0.6953625679016113,
                0.0006839100969955325,
                -0.0006617404287680984,
                0.7186585068702698
            ],
            "translation" : [
                5.960464477539063e-08,
                -1.1175367832183838,
                0.14751990139484406
            ]
        },
        {
            "name" : "Foot.L",
            "rotation" : [
                0.8064287304878235,
                -0.08794804662466049,
                -0.08794808387756348,
                0.5781030058860779
            ],
            "scale" : [
                1,
                1,
                1.0000003576278687
            ],
            "translation" : [
                0.7330792546272278,
                -0.9272443056106567,
                -0.23719321191310883
            ]
        },
        {
            "name" : "IKLeg.L",
            "rotation" : [
                -0.7071068286895752,
                0,
                0,
                0.7071068286895752
            ],
            "scale" : [
                1,
                0.9999999403953552,
                1
            ],
            "translation" : [
                0.733079195022583,
                -0.9272438287734985,
                -0.2371930629014969
            ]
        },
        {
            "name" : "Foot.R",
            "rotation" : [
                0.8064287304878235,
                0.08794804662466049,
                0.08794808387756348,
                0.5781030058860779
            ],
            "scale" : [
                1,
                1,
                1.0000003576278687
            ],
            "translation" : [
                -0.7330792546272278,
                -0.9272443056106567,
                -0.23719321191310883
            ]
        },
        {
            "name" : "IKLeg.R",
            "rotation" : [
                -0.7071068286895752,
                0,
                0,
                0.7071068286895752
            ],
            "scale" : [
                1,
                0.9999999403953552,
                1
            ],
            "translation" : [
                -0.733079195022583,
                -0.9272438287734985,
                -0.2371930629014969
            ]
        },
        {
            "mesh" : 0,
            "name" : "MouseMesh",
            "skin" : 0
        },
        {
            "children" : [
                22,
                17,
                18,
                19,
                20,
                21
            ],
            "name" : "Mouse",
            "translation" : [
                0,
                1.1124874353408813,
                0
            ]
        }
    ],
    "materials" : [
        {
            "doubleSided" : true,
            "name" : "Material",
            "pbrMetallicRoughness" : {
                "baseColorTexture" : {
                    "index" : 0
                },
                "metallicFactor" : 0
            }
        }
    ],
    "meshes" : [
        {
            "name" : "MouseModel",
            "primitives" : [
                {
                    "attributes" : {
                        "POSITION" : 0,
                        "NORMAL" : 1,
                        "TANGENT" : 2,
                        "TEXCOORD_0" : 3,
                        "JOINTS_0" : 4,
                        "WEIGHTS_0" : 5
                    },
                    "indices" : 6,
                    "material" : 0
                }
            ]
        }
    ],
    "textures" : [
        {
            "sampler" : 0,
            "source" : 0
        }
    ],
    "images" : [
        {
            "mimeType" : "image/png",
            "name" : "MouseTexture2",
            "uri" : "textures/MouseTexture2.png"
        }
    ],
    "skins" : [
        {
            "inverseBindMatrices" : 7,
            "joints" : [
                17,
                16,
                1,
                0,
                11,
                4,
                2,
                3,
                7,
                6,
                5,
                10,
                9,
                8,
                13,
                12,
                15,
                14,
                18,
                19,
                20,
                21
            ],
            "name" : "Mouse"
        }
    ],
    "accessors" : [
        {
            "bufferView" : 0,
            "componentType" : 5126,
            "count" : 1044,
            "max" : [
                1.7220258712768555,
                4.201894283294678,
                0.7880567312240601
            ],
            "min" : [
                -1.7220258712768555,
                -0.018247246742248535,
                -1.123652458190918
            ],
            "type" : "VEC3"
        },
        {
            "bufferView" : 1,
            "componentType" : 5126,
            "count" : 1044,
            "type" : "VEC3"
        },
        {
            "bufferView" : 2,
            "componentType" : 5126,
            "count" : 1044,
            "type" : "VEC4"
        },
        {
            "bufferView" : 3,
            "componentType" : 5126,
            "count" : 1044,
            "type" : "VEC2"
        },
        {
            "bufferView" : 4,
            "componentType" : 5121,
            "count" : 1044,
            "type" : "VEC4"
        },
        {
            "bufferView" : 5,
            "componentType" : 5126,
            "count" : 1044,
            "type" : "VEC4"
        },
        {
            "bufferView" : 6,
            "componentType" : 5123,
            "count" : 1392,
            "type" : "SCALAR"
        },
        {
            "bufferView" : 7,
            "componentType" : 5126,
            "count" : 22,
            "type" : "MAT4"
        }
    ],
    "bufferViews" : [
        {
            "buffer" : 0,
            "byteLength" : 12528,
            "byteOffset" : 0
        },
        {
            "buffer" : 0,
            "byteLength" : 12528,
            "byteOffset" : 12528
        },
        {
            "buffer" : 0,
            "byteLength" : 16704,
            "byteOffset" : 25056
        },
        {
            "buffer" : 0,
            "byteLength" : 8352,
            "byteOffset" : 41760
        },
        {
            "buffer" : 0,
            "byteLength" : 4176,
            "byteOffset" : 50112
        },
        {
            "buffer" : 0,
            "byteLength" : 16704,
            "byteOffset" : 54288
        },
        {
            "buffer" : 0,
            "byteLength" : 2784,
            "byteOffset" : 70992
        },
        {
            "buffer" : 0,
            "byteLength" : 1408,
            "byteOffset" : 73776
        }
    ],
    "samplers" : [
        {
            "magFilter" : 9728,
            "minFilter" : 9984
        }
    ],
    "buffers" : [
        {
            "byteLength" : 75184,
            "uri" : "mouse1.bin"
        }
    ]
}
